<svg width="630" height="630" viewBox="0 0 630 630" fill="none" xmlns="http://www.w3.org/2000/svg">
<g clip-path="url(#clip0_141_2)">
<path d="M582 0H48C21.4903 0 0 21.4903 0 48V582C0 608.51 21.4903 630 48 630H582C608.51 630 630 608.51 630 582V48C630 21.4903 608.51 0 582 0Z" fill="#F7DF1E"/>
<path d="M49.2 73.825V100H34.575V46.75H45.975L67.35 73.825V46.75H81.975V100H70.35L49.2 73.825ZM108.909 100.75C105.409 100.75 102.309 100.2 99.6088 99.1C96.9088 98 94.6338 96.5 92.7838 94.6C90.9838 92.65 89.6088 90.45 88.6588 88C87.7588 85.55 87.3088 82.975 87.3088 80.275C87.3088 77.575 87.7588 75 88.6588 72.55C89.6088 70.05 90.9838 67.85 92.7838 65.95C94.6338 64.05 96.9088 62.55 99.6088 61.45C102.309 60.35 105.409 59.8 108.909 59.8C112.459 59.8 115.559 60.35 118.209 61.45C120.909 62.55 123.159 64.05 124.959 65.95C126.809 67.85 128.184 70.05 129.084 72.55C130.034 75 130.509 77.575 130.509 80.275C130.509 82.975 130.034 85.55 129.084 88C128.184 90.45 126.809 92.65 124.959 94.6C123.159 96.5 120.909 98 118.209 99.1C115.559 100.2 112.459 100.75 108.909 100.75ZM101.934 80.275C101.934 82.025 102.234 83.55 102.834 84.85C103.434 86.1 104.259 87.075 105.309 87.775C106.359 88.425 107.559 88.75 108.909 88.75C110.259 88.75 111.459 88.425 112.509 87.775C113.559 87.075 114.384 86.1 114.984 84.85C115.584 83.55 115.884 82.025 115.884 80.275C115.884 78.525 115.584 77.025 114.984 75.775C114.384 74.475 113.559 73.5 112.509 72.85C111.459 72.15 110.259 71.8 108.909 71.8C107.559 71.8 106.359 72.15 105.309 72.85C104.259 73.5 103.434 74.475 102.834 75.775C102.234 77.025 101.934 78.525 101.934 80.275ZM162.642 97.825C161.342 98.375 159.942 98.9 158.442 99.4C156.992 99.85 155.492 100.2 153.942 100.45C152.442 100.7 150.967 100.825 149.517 100.825C147.367 100.825 145.392 100.475 143.592 99.775C141.792 99.025 140.342 97.825 139.242 96.175C138.192 94.475 137.667 92.2 137.667 89.35V71.275H132.792V60.55H137.667V48.175H151.917V60.55H159.642V71.275H151.917V84.325C151.917 85.625 152.192 86.55 152.742 87.1C153.292 87.6 154.042 87.85 154.992 87.85C155.692 87.85 156.492 87.725 157.392 87.475C158.292 87.225 159.192 86.925 160.092 86.575L162.642 97.825ZM185.667 100.75C182.217 100.75 179.142 100.225 176.442 99.175C173.742 98.075 171.467 96.6 169.617 94.75C167.817 92.9 166.442 90.775 165.492 88.375C164.542 85.975 164.067 83.45 164.067 80.8C164.067 77 164.892 73.525 166.542 70.375C168.192 67.175 170.617 64.625 173.817 62.725C177.017 60.775 180.967 59.8 185.667 59.8C190.367 59.8 194.317 60.75 197.517 62.65C200.717 64.55 203.142 67.05 204.792 70.15C206.442 73.25 207.267 76.625 207.267 80.275C207.267 81.025 207.217 81.8 207.117 82.6C207.067 83.35 206.992 84.025 206.892 84.625H179.217C179.317 86.025 179.692 87.175 180.342 88.075C181.042 88.925 181.892 89.55 182.892 89.95C183.942 90.35 185.017 90.55 186.117 90.55C187.667 90.55 189.117 90.2 190.467 89.5C191.867 88.8 192.792 87.825 193.242 86.575L205.317 90.025C204.267 92.125 202.792 93.975 200.892 95.575C199.042 97.175 196.842 98.45 194.292 99.4C191.742 100.3 188.867 100.75 185.667 100.75ZM178.917 76.075H191.967C191.817 74.775 191.442 73.675 190.842 72.775C190.292 71.875 189.542 71.175 188.592 70.675C187.692 70.175 186.642 69.925 185.442 69.925C184.242 69.925 183.167 70.175 182.217 70.675C181.317 71.175 180.567 71.875 179.967 72.775C179.417 73.675 179.067 74.775 178.917 76.075Z" fill="black"/>
<path d="M423.2 492.19C435.89 512.91 452.4 528.14 481.6 528.14C506.13 528.14 521.8 515.88 521.8 498.94C521.8 478.64 505.7 471.45 478.7 459.64L463.9 453.29C421.18 435.09 392.8 412.29 392.8 364.09C392.8 319.69 426.63 285.89 479.5 285.89C517.14 285.89 544.2 298.99 563.7 333.29L517.6 362.89C507.45 344.69 496.5 337.52 479.5 337.52C462.16 337.52 451.17 348.52 451.17 362.89C451.17 380.65 462.17 387.84 487.57 398.84L502.37 405.18C552.67 426.75 581.07 448.74 581.07 498.18C581.07 551.48 539.2 580.68 482.97 580.68C427.99 580.68 392.47 554.48 375.09 520.14L423.2 492.19ZM214.07 497.32C223.37 513.82 231.83 527.77 252.17 527.77C271.62 527.77 283.89 520.16 283.89 490.57V289.27H343.09V491.37C343.09 552.67 307.15 580.57 254.69 580.57C207.29 580.57 179.84 556.04 165.88 526.495L214.07 497.32Z" fill="black"/>
</g>
<defs>
<clipPath id="clip0_141_2">
<rect width="630" height="630" fill="white"/>
</clipPath>
</defs>
</svg>
